<?xml version="1.0" standalone="no"?>
<!DOCTYPE svg PUBLIC "-//W3C//DTD SVG 20010904//EN"
 "http://www.w3.org/TR/2001/REC-SVG-20010904/DTD/svg10.dtd">
<svg version="1.0" xmlns="http://www.w3.org/2000/svg"
 width="720.000000pt" height="720.000000pt" viewBox="0 0 720.000000 720.000000"
 preserveAspectRatio="xMidYMid meet">

<g transform="translate(0.000000,720.000000) scale(0.100000,-0.100000)"
fill="#000000" stroke="none">
<path d="M5430 4953 c0 -4 11 -42 24 -84 41 -125 59 -234 54 -316 -3 -40 -2
-76 2 -78 8 -5 66 80 111 163 l24 42 -35 66 c-19 37 -57 92 -85 123 -52 60
-95 98 -95 84z"/>
<path d="M4307 4913 c-32 -37 -67 -218 -67 -348 l0 -64 43 -8 42 -9 6 141 c4
77 10 177 14 223 6 69 5 82 -7 82 -8 0 -22 -8 -31 -17z"/>
<path d="M5190 4822 c0 -6 9 -50 20 -97 11 -47 20 -90 20 -95 0 -6 -21 -10
-47 -10 -27 0 -90 -12 -142 -26 l-94 -27 -18 24 c-10 13 -25 42 -32 63 l-13
40 -12 -82 c-9 -67 -17 -90 -42 -121 -35 -43 -77 -144 -62 -149 5 -1 50 -23
98 -48 87 -45 172 -102 226 -152 l27 -25 48 31 c98 63 257 122 327 122 15 0
29 6 32 14 15 39 -45 214 -86 251 -11 10 -36 47 -55 82 -20 34 -64 92 -98 128
-35 36 -61 69 -58 73 4 4 2 4 -3 0 -5 -4 -15 -3 -23 3 -9 8 -13 8 -13 1z"/>
<path d="M2698 4793 c7 -3 16 -2 19 1 4 3 -2 6 -13 5 -11 0 -14 -3 -6 -6z"/>
<path d="M4547 4703 c-38 -83 -67 -182 -67 -231 0 -28 4 -31 63 -49 34 -11 63
-19 65 -17 2 1 -4 24 -13 51 -23 68 -30 168 -16 248 7 37 10 69 8 71 -2 2 -20
-31 -40 -73z"/>
<path d="M4891 4760 c-1 -8 -4 -26 -7 -40 -5 -22 -4 -23 6 -7 6 10 9 28 7 40
-2 12 -5 15 -6 7z"/>
<path d="M1400 3850 c-14 -5 -86 -25 -160 -46 -401 -110 -699 -279 -770 -437
-28 -62 -26 -141 6 -205 76 -152 342 -303 754 -426 63 -19 160 -57 215 -84
313 -157 802 -260 1515 -319 289 -24 1003 -24 1290 1 703 58 1174 157 1500
313 63 31 185 77 270 104 837 259 976 611 356 905 -97 46 -277 114 -301 114
-38 0 5 -28 88 -59 191 -69 366 -170 444 -254 53 -57 73 -96 80 -158 5 -42 1
-58 -26 -114 -140 -283 -912 -525 -1996 -624 -255 -24 -477 -36 -950 -52 -343
-11 -437 -9 -800 17 -110 8 -266 19 -347 24 -81 5 -167 14 -190 19 -24 6 -135
21 -248 36 -235 29 -248 31 -468 79 -452 99 -727 192 -918 311 -232 145 -283
305 -146 457 122 134 387 257 800 367 25 7 42 18 42 26 0 17 -4 17 -40 5z
m4340 -1185 c0 -7 -88 -44 -195 -81 -280 -98 -689 -172 -1205 -220 -238 -22
-950 -30 -1231 -15 -627 35 -1148 123 -1508 257 -169 63 -163 66 45 24 404
-82 843 -133 1376 -161 263 -13 1141 -7 1368 10 490 38 991 106 1252 171 79
19 98 22 98 15z"/>
<path d="M1971 3728 c-5 -13 -12 -46 -16 -75 -6 -46 -10 -52 -32 -55 -39 -5
-49 -28 -34 -78 13 -44 26 -52 97 -64 l41 -7 21 50 c43 99 20 139 -60 106 -22
-9 -24 19 -7 79 9 33 14 37 35 33 26 -5 31 2 12 21 -19 19 -48 14 -57 -10z"/>
<path d="M1360 3594 c-120 -69 -190 -155 -190 -235 0 -65 12 -91 66 -149 52
-56 145 -118 242 -161 91 -41 232 -90 232 -81 0 21 -31 43 -95 67 -350 136
-456 312 -282 472 24 22 54 46 66 52 13 7 21 21 21 36 0 31 -4 31 -60 -1z"/>
<path d="M5973 3431 c-19 -15 -23 -30 -23 -71 0 -69 -21 -111 -86 -169 -169
-150 -594 -283 -1124 -351 -161 -21 -306 -58 -234 -59 44 -1 311 35 484 65
543 94 946 264 1021 429 23 49 24 106 4 145 -18 35 -14 34 -42 11z"/>
<path d="M4428 3379 c-19 -11 -25 -69 -8 -69 24 0 80 30 80 42 0 33 -38 47
-72 27z"/>
<path d="M4628 3339 c-16 -9 -27 -69 -13 -69 18 0 85 34 85 44 0 31 -39 45
-72 25z"/>
<path d="M4156 3294 c-14 -14 -23 -64 -11 -64 18 0 85 34 85 44 0 34 -48 47
-74 20z"/>
<path d="M4246 3198 c-18 -26 -21 -58 -6 -58 24 0 80 30 80 42 0 39 -51 50
-74 16z"/>
<path d="M4428 3199 c-19 -11 -25 -69 -8 -69 24 0 80 30 80 42 0 33 -38 47
-72 27z"/>
<path d="M4578 3159 c-19 -11 -25 -69 -8 -69 24 0 80 30 80 42 0 33 -38 47
-72 27z"/>
<path d="M4112 3094 c-22 -15 -31 -64 -12 -64 6 0 26 7 45 14 36 15 44 33 23
54 -16 16 -29 15 -56 -4z"/>
<path d="M4247 3032 c-22 -24 -22 -62 -2 -62 25 0 75 29 75 43 0 36 -47 48
-73 19z"/>
<path d="M4432 2954 c-22 -15 -31 -64 -12 -64 6 0 26 7 45 14 36 15 44 33 23
54 -16 16 -29 15 -56 -4z"/>
<path d="M2145 2880 c-4 -6 -3 -15 1 -20 10 -8 209 -41 397 -65 147 -19 140
-19 128 4 -8 14 -27 20 -85 25 -77 7 -364 50 -409 61 -15 4 -28 2 -32 -5z"/>
<path d="M4253 2878 c-16 -8 -23 -20 -23 -41 0 -28 2 -29 32 -23 45 9 66 31
52 54 -14 21 -32 24 -61 10z"/>
<path d="M3381 2756 c-9 -11 3 -14 70 -20 82 -7 571 2 599 10 13 5 13 6 0 14
-9 6 -155 10 -336 10 -259 0 -324 -3 -333 -14z"/>
<path d="M2330 2219 c-68 -14 -113 -87 -125 -201 -3 -37 -11 -70 -16 -73 -5
-4 -14 -16 -20 -27 -10 -18 -9 -20 5 -15 14 6 16 -7 15 -114 -2 -115 6 -150
29 -135 5 3 13 56 17 118 4 62 11 120 16 129 11 22 48 30 126 30 63 0 63 0 63
29 0 16 -4 31 -9 35 -10 6 -127 -10 -157 -22 -15 -5 -16 -1 -10 33 5 21 15 61
24 89 15 44 21 50 54 58 24 6 49 5 67 -1 27 -10 29 -8 35 20 11 54 -18 66
-114 47z"/>
<path d="M3336 2178 c-64 -66 -110 -148 -142 -253 -19 -62 -33 -89 -64 -120
-22 -21 -42 -37 -45 -34 -3 3 2 26 10 50 9 24 17 69 18 99 3 84 -18 80 -120
-25 -47 -47 -97 -91 -111 -96 -59 -23 -95 17 -52 56 61 55 80 146 32 153 -38
6 -112 -91 -112 -147 0 -9 -17 -34 -38 -54 -40 -40 -69 -50 -57 -19 4 9 10 40
12 67 4 46 2 53 -26 79 -28 27 -32 28 -61 16 -18 -8 -30 -20 -30 -31 0 -11
-18 -39 -41 -64 -30 -32 -38 -48 -32 -59 7 -13 18 -7 58 34 27 28 55 50 62 50
22 0 26 -48 9 -99 -19 -59 -20 -81 -5 -81 19 0 120 61 126 76 8 21 31 17 38
-6 14 -45 78 -49 130 -9 14 12 22 26 18 32 -3 7 -3 9 2 5 4 -4 33 15 63 42 62
56 78 54 67 -9 -5 -29 -11 -41 -22 -39 -27 5 -38 -26 -25 -71 14 -45 27 -46
72 -6 14 12 39 31 56 43 l32 22 7 -46 c11 -78 28 -73 112 33 l22 28 16 -22
c10 -14 26 -23 43 -23 55 1 86 54 31 55 -19 0 -26 8 -37 40 -7 21 -15 41 -17
43 -10 11 -41 -22 -69 -73 -38 -72 -60 -84 -50 -29 8 49 17 65 82 150 57 75
118 190 128 241 5 25 2 33 -16 43 -20 11 -27 7 -74 -42z m54 -23 c0 -27 -115
-214 -132 -215 -4 0 1 23 13 52 30 76 119 198 119 163z m-566 -256 c-24 -27
-30 -15 -9 18 12 17 20 23 23 15 2 -7 -4 -22 -14 -33z"/>
<path d="M3581 2204 c-48 -61 -121 -259 -121 -327 0 -12 -9 -30 -20 -42 -24
-25 -18 -64 6 -44 17 14 17 14 29 -25 7 -22 19 -32 44 -39 41 -10 78 3 117 44
36 38 44 37 44 -6 0 -63 34 -56 121 22 35 32 39 33 39 15 0 -35 -39 -128 -62
-148 -11 -11 -43 -48 -69 -83 -66 -86 -65 -110 2 -75 18 9 52 49 85 99 29 45
79 106 109 133 30 28 55 55 55 61 0 16 -8 14 -41 -10 -34 -24 -36 -17 -9 51
43 108 20 116 -75 28 -89 -83 -100 -89 -91 -52 17 77 18 94 7 94 -6 0 -44 -27
-85 -60 -53 -42 -83 -60 -103 -60 -67 0 -70 51 -8 151 66 107 110 254 85 284
-18 22 -36 18 -59 -11z m-22 -210 c-33 -66 -54 -86 -39 -36 21 64 42 118 53
131 10 12 13 10 15 -9 2 -12 -11 -51 -29 -86z"/>
<path d="M4265 2214 c-66 -18 -85 -29 -85 -51 0 -11 9 -13 45 -7 49 7 54 1 28
-28 -10 -12 -20 -46 -24 -89 -6 -55 -13 -74 -31 -89 l-23 -19 22 -20 c20 -19
21 -28 16 -98 -4 -67 -8 -81 -31 -101 -20 -19 -23 -26 -11 -33 8 -5 19 -7 24
-5 6 1 15 -4 21 -12 9 -13 13 -12 30 5 10 11 42 26 69 32 61 15 133 46 157 68
26 23 23 68 -7 91 -13 11 -53 30 -87 42 -96 35 -100 43 -43 77 87 52 169 118
179 144 13 38 0 78 -30 89 -49 19 -156 21 -219 4z m138 -55 c70 -19 60 -54
-34 -117 -34 -23 -66 -42 -72 -42 -6 0 -7 13 -2 33 3 17 9 50 12 72 9 67 23
74 96 54z m-3 -321 c11 -7 20 -18 20 -25 0 -16 -111 -73 -141 -73 -21 0 -21 3
-15 67 4 36 9 70 11 74 5 7 91 -22 125 -43z"/>
<path d="M4946 2117 c-18 -40 -39 -91 -46 -113 -20 -59 -76 -156 -109 -188
-38 -37 -61 -29 -61 19 0 56 -22 55 -91 -5 -33 -29 -63 -50 -66 -46 -3 3 34
46 82 96 70 70 86 93 77 102 -18 18 -63 -9 -152 -90 l-73 -68 -3 -57 c-5 -86
24 -87 115 -4 l44 40 12 -30 c21 -48 56 -52 102 -10 12 11 20 25 16 31 -3 6
-2 8 2 3 5 -4 20 3 33 15 23 21 25 22 18 3 -4 -11 -10 -46 -13 -77 -5 -49 -3
-59 12 -65 14 -5 29 5 59 40 46 53 55 56 81 27 26 -29 49 -25 84 15 35 40 47
43 56 15 14 -45 78 -49 129 -9 33 26 25 52 -12 38 -59 -23 -95 17 -52 56 61
55 80 146 32 153 -38 6 -111 -90 -112 -147 0 -9 -14 -32 -30 -51 -24 -29 -32
-33 -46 -24 -39 24 -40 41 -6 103 33 61 41 96 20 89 -7 -3 -26 -27 -42 -55
-16 -28 -39 -56 -51 -61 -14 -7 -25 -23 -29 -44 -7 -37 -45 -93 -46 -68 0 26
56 189 95 277 25 58 35 94 33 120 -5 60 -25 51 -62 -30z m238 -218 c-24 -27
-30 -15 -9 18 12 17 20 23 23 15 2 -7 -4 -22 -14 -33z"/>
</g>
</svg>
